<?xml version="1.0" encoding="UTF-8" standalone="no"?>
<svg
   xmlns:dc="http://purl.org/dc/elements/1.1/"
   xmlns:cc="http://creativecommons.org/ns#"
   xmlns:rdf="http://www.w3.org/1999/02/22-rdf-syntax-ns#"
   xmlns:svg="http://www.w3.org/2000/svg"
   xmlns="http://www.w3.org/2000/svg"
   xmlns:sodipodi="http://sodipodi.sourceforge.net/DTD/sodipodi-0.dtd"
   xmlns:inkscape="http://www.inkscape.org/namespaces/inkscape"
   version="1.1"
   preserveAspectRatio="xMidYMid meet"
   id="svg_document"
   viewBox="0 0 151.97943 131.24998"
   width="151.97943"
   height="131.24998"
   sodipodi:docname="mathlingua-icon.svg"
   inkscape:version="1.0.2 (e86c8708, 2021-01-15)">
  <metadata
     id="metadata33">
    <rdf:RDF>
      <cc:Work
         rdf:about="">
        <dc:format>image/svg+xml</dc:format>
        <dc:type
           rdf:resource="http://purl.org/dc/dcmitype/StillImage" />
      </cc:Work>
    </rdf:RDF>
  </metadata>
  <sodipodi:namedview
     pagecolor="#ffffff"
     bordercolor="#666666"
     borderopacity="1"
     objecttolerance="10"
     gridtolerance="10"
     guidetolerance="10"
     inkscape:pageopacity="0"
     inkscape:pageshadow="2"
     inkscape:window-width="1728"
     inkscape:window-height="1051"
     id="namedview31"
     showgrid="false"
     inkscape:zoom="4.52521"
     inkscape:cx="36.826415"
     inkscape:cy="86.901236"
     inkscape:window-x="0"
     inkscape:window-y="38"
     inkscape:window-maximized="1"
     inkscape:current-layer="svg_document" />
  <!-- Created with macSVG - https://macsvg.org/ - https://github.com/dsward2/macsvg/ -->
  <title
     id="svg_document_title">mathlingua.svg</title>
  <defs
     id="svg_document_defs" />
  <g
     id="main_group"
     transform="translate(-2.5205657,-10.20002)" />
  <g
     transform="matrix(0.3,0,0,0.3,-2.2205657,-4.2000198)"
     id="g28">
    <polygon
       points="10,450 510,450 260,17 "
       stroke="#000000"
       id="polygon1"
       stroke-width="3px"
       fill="none" />
    <line
       stroke="#000000"
       y1="260"
       id="line2"
       x1="514"
       stroke-width="3px"
       y2="260"
       x2="514" />
    <line
       stroke="#000000"
       y1="450"
       id="line3"
       x1="260.5"
       stroke-width="3px"
       y2="220"
       x2="377" />
    <line
       stroke="#000000"
       y1="450"
       id="line1"
       x1="260.5"
       stroke-width="3px"
       y2="220"
       x2="141.5" />
    <text
       stroke="none"
       id="text1"
       stroke-width="1px"
       x="391.5"
       text-rendering="geometricPrecision"
       font-family="Helvetica"
       fill="#000000"
       font-size="32px"
       y="99.5"
       text-anchor="middle" />
    <g
       id="g1348"
       transform="matrix(0.7,0,0,0.7,311.5,318.5)">
      <path
         id="text1326"
         d="m 100.16623,51.415329 c 6.58323,-6.333244 12.91656,-11.708238 19,-16.125 6.08322,-4.499896 11.20821,-7.499893 15.375,-9 4.16654,-1.49989 8.7082,-2.249889 13.625,-2.25 10.33318,1.11e-4 18.66651,3.45844 25,10.375 6.4165,6.833427 9.62483,15.125085 9.625,24.875 -1.7e-4,6.666735 -1.41684,12.833396 -4.25,18.5 -2.8335,5.666718 -6.87516,9.95838 -12.125,12.875 -5.16682,2.916708 -11.12515,4.37504 -17.875,4.375 -8.75013,4e-5 -16.41679,-1.874959 -23,-5.625 -6.50011,-3.749951 -14.95844,-10.833277 -25.375,-21.25 -10.833415,10.750056 -19.458406,17.916715 -25.875001,21.5 -6.416725,3.583375 -13.875051,5.37504 -22.375,5.375 -10.833365,4e-5 -19.29169,-3.374957 -25.375,-10.125 -6.000011,-6.749944 -9.000008,-15.291602 -9,-25.625 -8e-6,-9.666582 3.166655,-17.95824 9.5,-24.875 6.416642,-6.91656 14.791634,-10.374889 25.125,-10.375 4.999952,1.11e-4 9.583281,0.75011 13.75,2.25 4.166606,1.500107 9.249934,4.500104 15.25,9 6.083255,4.416762 12.416582,9.791756 19.000001,16.125 m 8.125,7.75 c 8.83322,8.750067 16.08322,14.708394 21.75,17.875 5.74987,3.083388 11.4582,4.625053 17.125,4.625 7.08319,5.3e-5 12.62485,-2.083278 16.625,-6.25 3.99984,-4.249937 5.99984,-9.374931 6,-15.375 -1.6e-4,-6.583252 -2.00016,-11.999913 -6,-16.25 -3.91682,-4.333238 -9.12515,-6.499903 -15.625,-6.5 -3.6668,9.7e-5 -7.20847,0.666763 -10.625,2 -3.41679,1.250094 -7.50012,3.500092 -12.25,6.75 -4.75011,3.166752 -10.41677,7.541748 -17,13.125 m -16.250001,0 c -6.000077,-5.083253 -11.375072,-9.249915 -16.125,-12.5 -4.750062,-3.333242 -8.916725,-5.70824 -12.5,-7.125 -3.583384,-1.41657 -7.500047,-2.124903 -11.75,-2.125 -6.08337,9.7e-5 -11.125031,2.125095 -15.125,6.375 -4.000023,4.250087 -6.000021,9.666748 -6,16.25 -2.1e-5,4.583403 1.041644,8.458399 3.125,11.625 2.083307,3.166726 4.624971,5.625057 7.625,7.375 3.083298,1.750054 6.916628,2.625053 11.5,2.625 5.99995,5.3e-5 11.833278,-1.583279 17.5,-4.75 5.6666,-3.166606 12.916593,-9.083267 21.75,-17.75"
         style="font-style:normal;font-variant:normal;font-weight:normal;font-stretch:normal;font-size:256px;line-height:100%;font-family:'Palatino Linotype';text-align:start;writing-mode:lr-tb;text-anchor:start;fill:#000000;fill-opacity:1;stroke:none;stroke-width:1px;stroke-linecap:butt;stroke-linejoin:miter;stroke-opacity:1" />
    </g>
    <g
       inkscape:label="Layer 1"
       inkscape:groupmode="layer"
       id="layer1"
       transform="matrix(0.4,0,0,0.4,-34.67192,80.71852)">
      <g
         aria-label="Σ"
         style="font-style:normal;font-weight:normal;line-height:0%;font-family:'Times New Roman';text-align:start;text-anchor:start;fill:#000000;fill-opacity:1;stroke:none;stroke-width:1px;stroke-linecap:butt;stroke-linejoin:miter;stroke-opacity:1"
         id="text5540">
        <path
           d="m 340.80927,575.52393 h 198.63281 l 5.27344,66.60156 h -7.42188 q -1.36719,-19.72656 -6.64062,-30.07813 -5.27344,-10.54687 -14.45313,-15.23437 -9.17969,-4.6875 -29.10156,-4.6875 h -90.42969 l 80.66406,103.51562 -91.79687,108.39844 h 100.58594 q 27.34375,0 41.79687,-8.78906 14.45313,-8.78906 21.67969,-36.71875 l 7.42187,1.75781 -11.32812,80.07813 H 340.80927 v -7.03125 L 442.76239,713.02393 340.80927,582.55518 Z"
           style="font-size:400px;line-height:1.25;text-align:center;text-anchor:middle"
           id="path814" />
      </g>
    </g>
    <g
       inkscape:label="Calque 1"
       inkscape:groupmode="layer"
       id="g26"
       transform="matrix(0.25,0,0,0.25,585.52442,214.67027)">
      <g
         transform="matrix(1.1474027,0,0,-1.1474027,-1653.9623,446.73371)"
         inkscape:label="German_integral"
         id="g6184"
         style="fill:#000000;fill-opacity:1;stroke:none">
        <g
           id="g6186"
           style="fill:#000000;fill-opacity:1;stroke:none">
          <path
             inkscape:connector-curvature="0"
             id="path6188"
             style="fill:#000000;fill-opacity:1;stroke:none;stroke-width:1;stroke-linecap:butt;stroke-linejoin:miter;stroke-miterlimit:10;stroke-dasharray:none;stroke-opacity:1"
             d="m 277.416,642.38 c 7.159,42.665 23.279,83.97 39.246,107.485 15.967,23.514 31.782,29.238 49.003,30.065 17.222,0.827 35.85,-3.242 44.865,-12.373 9.014,-9.13 8.415,-23.321 2.442,-35.123 -5.973,-11.802 -17.319,-21.214 -27.337,-24.73 -10.018,-3.515 -18.708,-1.133 -26.532,2.987 -7.823,4.119 -14.781,9.976 -20.201,10.983 -5.42,1.006 -9.302,-2.837 -12.36,-8.081 -3.057,-5.243 -5.288,-11.887 -5.371,-28.377 -0.083,-16.49 1.983,-42.826 3.82,-67.276 1.837,-24.449 3.444,-47.012 5.597,-102.965 2.153,-55.953 4.851,-145.296 7.078,-211.98 2.227,-66.684 3.982,-110.709 -3.176,-153.375 C 327.331,106.955 311.258,65.65 295.314,42.135 279.371,18.621 263.556,12.897 246.335,12.07 c -17.222,-0.827 -35.85,3.242 -44.865,12.373 -9.014,9.13 -8.415,23.321 -2.442,35.123 5.973,11.802 17.319,21.214 27.337,24.73 10.018,3.515 18.708,1.133 26.532,-2.987 7.823,-4.119 14.781,-9.976 20.201,-10.983 5.42,-1.006 9.302,2.837 12.36,8.081 3.057,5.243 5.288,11.887 5.371,28.377 0.083,16.49 -1.983,42.826 -3.82,67.276 -1.837,24.449 -3.444,47.012 -5.597,102.965 -2.153,55.953 -4.851,145.296 -7.102,211.98 -2.25,66.684 -4.052,110.709 3.106,153.375 z" />
        </g>
      </g>
    </g>
  </g>
</svg>
